%TF.GenerationSoftware,KiCad,Pcbnew,9.0.7*%
%TF.CreationDate,2026-02-11T13:40:06+00:00*%
%TF.ProjectId,Comparator,436f6d70-6172-4617-946f-722e6b696361,rev?*%
%TF.SameCoordinates,Original*%
%TF.FileFunction,Copper,L1,Top*%
%TF.FilePolarity,Positive*%
%FSLAX46Y46*%
G04 Gerber Fmt 4.6, Leading zero omitted, Abs format (unit mm)*
G04 Created by KiCad (PCBNEW 9.0.7) date 2026-02-11 13:40:06*
%MOMM*%
%LPD*%
G01*
G04 APERTURE LIST*
G04 Aperture macros list*
%AMRoundRect*
0 Rectangle with rounded corners*
0 $1 Rounding radius*
0 $2 $3 $4 $5 $6 $7 $8 $9 X,Y pos of 4 corners*
0 Add a 4 corners polygon primitive as box body*
4,1,4,$2,$3,$4,$5,$6,$7,$8,$9,$2,$3,0*
0 Add four circle primitives for the rounded corners*
1,1,$1+$1,$2,$3*
1,1,$1+$1,$4,$5*
1,1,$1+$1,$6,$7*
1,1,$1+$1,$8,$9*
0 Add four rect primitives between the rounded corners*
20,1,$1+$1,$2,$3,$4,$5,0*
20,1,$1+$1,$4,$5,$6,$7,0*
20,1,$1+$1,$6,$7,$8,$9,0*
20,1,$1+$1,$8,$9,$2,$3,0*%
G04 Aperture macros list end*
%TA.AperFunction,SMDPad,CuDef*%
%ADD10RoundRect,0.250000X-0.450000X0.262500X-0.450000X-0.262500X0.450000X-0.262500X0.450000X0.262500X0*%
%TD*%
%TA.AperFunction,SMDPad,CuDef*%
%ADD11RoundRect,0.250000X0.250000X0.475000X-0.250000X0.475000X-0.250000X-0.475000X0.250000X-0.475000X0*%
%TD*%
%TA.AperFunction,SMDPad,CuDef*%
%ADD12RoundRect,0.087500X0.087500X-0.725000X0.087500X0.725000X-0.087500X0.725000X-0.087500X-0.725000X0*%
%TD*%
%TA.AperFunction,SMDPad,CuDef*%
%ADD13RoundRect,0.250000X0.475000X-0.250000X0.475000X0.250000X-0.475000X0.250000X-0.475000X-0.250000X0*%
%TD*%
%TA.AperFunction,ComponentPad*%
%ADD14R,1.700000X1.700000*%
%TD*%
%TA.AperFunction,ComponentPad*%
%ADD15C,1.700000*%
%TD*%
%TA.AperFunction,ViaPad*%
%ADD16C,1.600000*%
%TD*%
%TA.AperFunction,Conductor*%
%ADD17C,0.300000*%
%TD*%
%TA.AperFunction,Conductor*%
%ADD18C,0.400000*%
%TD*%
G04 APERTURE END LIST*
D10*
%TO.P,R1,2*%
%TO.N,Net-(MAX997EUA+1--)*%
X119000000Y-77412500D03*
%TO.P,R1,1*%
%TO.N,+3.3V*%
X119000000Y-75587500D03*
%TD*%
D11*
%TO.P,C2,1*%
%TO.N,Net-(MAX997EUA+1--)*%
X123950000Y-84000000D03*
%TO.P,C2,2*%
%TO.N,GND*%
X122050000Y-84000000D03*
%TD*%
D12*
%TO.P,MAX997EUA+1,1,NC*%
%TO.N,unconnected-(MAX997EUA+1-NC-Pad1)*%
X125525000Y-80112500D03*
%TO.P,MAX997EUA+1,2,-*%
%TO.N,Net-(MAX997EUA+1--)*%
X126175000Y-80112500D03*
%TO.P,MAX997EUA+1,3,+*%
%TO.N,Net-(J1-Pin_3)*%
X126825000Y-80112500D03*
%TO.P,MAX997EUA+1,4,GND*%
%TO.N,GND*%
X127475000Y-80112500D03*
%TO.P,MAX997EUA+1,5,NC*%
%TO.N,unconnected-(MAX997EUA+1-NC-Pad5)*%
X127475000Y-75887500D03*
%TO.P,MAX997EUA+1,6*%
%TO.N,Net-(J2-Pin_1)*%
X126825000Y-75887500D03*
%TO.P,MAX997EUA+1,7,V+*%
%TO.N,+3.3V*%
X126175000Y-75887500D03*
%TO.P,MAX997EUA+1,8,~{SHDN}*%
%TO.N,GND*%
X125525000Y-75887500D03*
%TD*%
D10*
%TO.P,R2,1*%
%TO.N,Net-(MAX997EUA+1--)*%
X119000000Y-79087500D03*
%TO.P,R2,2*%
%TO.N,GND*%
X119000000Y-80912500D03*
%TD*%
D13*
%TO.P,C1,1*%
%TO.N,+3.3V*%
X125000000Y-73400000D03*
%TO.P,C1,2*%
%TO.N,GND*%
X125000000Y-71500000D03*
%TD*%
D14*
%TO.P,J1,1,Pin_1*%
%TO.N,+3.3V*%
X130500000Y-88580000D03*
D15*
%TO.P,J1,2,Pin_2*%
%TO.N,GND*%
X130500000Y-86040000D03*
%TO.P,J1,3,Pin_3*%
%TO.N,Net-(J1-Pin_3)*%
X130500000Y-83500000D03*
%TD*%
D14*
%TO.P,J2,1,Pin_1*%
%TO.N,Net-(J2-Pin_1)*%
X130500000Y-74225000D03*
D15*
%TO.P,J2,2,Pin_2*%
%TO.N,GND*%
X130500000Y-76765000D03*
%TD*%
D16*
%TO.N,GND*%
X123000000Y-75500000D03*
X121000000Y-72000000D03*
%TD*%
D17*
%TO.N,+3.3V*%
X125000000Y-73400000D02*
X125720000Y-73400000D01*
X125720000Y-73400000D02*
X126175000Y-73855000D01*
D18*
X114500000Y-87000000D02*
X114500000Y-75500000D01*
X116080000Y-88580000D02*
X114500000Y-87000000D01*
X130500000Y-88580000D02*
X116080000Y-88580000D01*
D17*
X126175000Y-73855000D02*
X126175000Y-75887500D01*
D18*
X116050000Y-73950000D02*
X118500000Y-73950000D01*
X123100000Y-73400000D02*
X125000000Y-73400000D01*
X114500000Y-75500000D02*
X116050000Y-73950000D01*
X119000000Y-74450000D02*
X118500000Y-73950000D01*
X122550000Y-73950000D02*
X123100000Y-73400000D01*
X118500000Y-73950000D02*
X122550000Y-73950000D01*
X119000000Y-75587500D02*
X119000000Y-74450000D01*
D17*
%TO.N,GND*%
X123000000Y-75500000D02*
X125137500Y-75500000D01*
X125137500Y-75500000D02*
X125525000Y-75887500D01*
D18*
%TO.N,Net-(MAX997EUA+1--)*%
X125000000Y-84000000D02*
X125500000Y-83500000D01*
X125500000Y-82000000D02*
X123500000Y-82000000D01*
D17*
X126175000Y-81325000D02*
X125500000Y-82000000D01*
D18*
X120587500Y-79087500D02*
X119000000Y-79087500D01*
X119000000Y-77412500D02*
X119000000Y-79087500D01*
D17*
X126175000Y-80112500D02*
X126175000Y-81325000D01*
D18*
X123500000Y-82000000D02*
X120587500Y-79087500D01*
X125500000Y-83500000D02*
X125500000Y-82000000D01*
X123950000Y-84000000D02*
X125000000Y-84000000D01*
D17*
%TO.N,Net-(J1-Pin_3)*%
X126825000Y-80112500D02*
X126825000Y-82095000D01*
X128230000Y-83500000D02*
X130500000Y-83500000D01*
X126825000Y-82095000D02*
X128230000Y-83500000D01*
%TO.N,Net-(J2-Pin_1)*%
X127561020Y-74225000D02*
X130500000Y-74225000D01*
X126825000Y-75887500D02*
X126825000Y-74961020D01*
X126825000Y-74961020D02*
X127561020Y-74225000D01*
%TD*%
%TA.AperFunction,Conductor*%
%TO.N,GND*%
G36*
X117891786Y-74670462D02*
G01*
X117946324Y-74725000D01*
X117966286Y-74799500D01*
X117946324Y-74874000D01*
X117944103Y-74877721D01*
X117865186Y-75005666D01*
X117810001Y-75172201D01*
X117799500Y-75274995D01*
X117799500Y-75900003D01*
X117799501Y-75900008D01*
X117810001Y-76002797D01*
X117865186Y-76169334D01*
X117912954Y-76246779D01*
X117957288Y-76318656D01*
X118033273Y-76394641D01*
X118071837Y-76461436D01*
X118071837Y-76538564D01*
X118033273Y-76605359D01*
X117957288Y-76681343D01*
X117865186Y-76830666D01*
X117810001Y-76997201D01*
X117799500Y-77099995D01*
X117799500Y-77725003D01*
X117799501Y-77725008D01*
X117810001Y-77827797D01*
X117865186Y-77994334D01*
X117919109Y-78081757D01*
X117957288Y-78143656D01*
X117958273Y-78144641D01*
X117958832Y-78145610D01*
X117962671Y-78150465D01*
X117961960Y-78151027D01*
X117996837Y-78211436D01*
X117996837Y-78288564D01*
X117961960Y-78348972D01*
X117962671Y-78349535D01*
X117958832Y-78354389D01*
X117958273Y-78355359D01*
X117957288Y-78356343D01*
X117865186Y-78505666D01*
X117810001Y-78672201D01*
X117799500Y-78774995D01*
X117799500Y-79400003D01*
X117799501Y-79400008D01*
X117810001Y-79502797D01*
X117865186Y-79669334D01*
X117938379Y-79788000D01*
X117957288Y-79818656D01*
X118033627Y-79894995D01*
X118072191Y-79961790D01*
X118072191Y-80038918D01*
X118033627Y-80105713D01*
X117957680Y-80181659D01*
X117865642Y-80330878D01*
X117810494Y-80497302D01*
X117810492Y-80497311D01*
X117800000Y-80600010D01*
X117800000Y-80662500D01*
X120199999Y-80662500D01*
X120199999Y-80600026D01*
X120189505Y-80497303D01*
X120134357Y-80330878D01*
X120042319Y-80181659D01*
X119966373Y-80105713D01*
X119927809Y-80038918D01*
X119927809Y-79961790D01*
X119966373Y-79894995D01*
X120029727Y-79831641D01*
X120096522Y-79793077D01*
X120135086Y-79788000D01*
X120235625Y-79788000D01*
X120310125Y-79807962D01*
X120340984Y-79831641D01*
X123053457Y-82544114D01*
X123168189Y-82620775D01*
X123238912Y-82650069D01*
X123300100Y-82697019D01*
X123329616Y-82768276D01*
X123319550Y-82844744D01*
X123282074Y-82898018D01*
X123271853Y-82907301D01*
X123231344Y-82932288D01*
X123107288Y-83056344D01*
X123106669Y-83057346D01*
X123099829Y-83063560D01*
X123068621Y-83079633D01*
X123038210Y-83097191D01*
X123034531Y-83097191D01*
X123031261Y-83098875D01*
X122996198Y-83097191D01*
X122961082Y-83097191D01*
X122957895Y-83095351D01*
X122954222Y-83095175D01*
X122924697Y-83076184D01*
X122894287Y-83058627D01*
X122768340Y-82932680D01*
X122619121Y-82840642D01*
X122452697Y-82785494D01*
X122452688Y-82785492D01*
X122349989Y-82775000D01*
X122300000Y-82775000D01*
X122300000Y-85224999D01*
X122349974Y-85224999D01*
X122452696Y-85214505D01*
X122619121Y-85159357D01*
X122768340Y-85067319D01*
X122894287Y-84941373D01*
X122961082Y-84902809D01*
X123038210Y-84902809D01*
X123105005Y-84941373D01*
X123107288Y-84943656D01*
X123231344Y-85067712D01*
X123380666Y-85159814D01*
X123547203Y-85214999D01*
X123649991Y-85225500D01*
X124250008Y-85225499D01*
X124352797Y-85214999D01*
X124519334Y-85159814D01*
X124668656Y-85067712D01*
X124792712Y-84943656D01*
X124884814Y-84794334D01*
X124884815Y-84794329D01*
X124884817Y-84794327D01*
X124888455Y-84786527D01*
X124938033Y-84727444D01*
X125010510Y-84701067D01*
X125023493Y-84700500D01*
X125068990Y-84700500D01*
X125068994Y-84700500D01*
X125204328Y-84673580D01*
X125291371Y-84637525D01*
X125331802Y-84620779D01*
X125331803Y-84620778D01*
X125331811Y-84620775D01*
X125446543Y-84544114D01*
X126044114Y-83946543D01*
X126120775Y-83831811D01*
X126127224Y-83816243D01*
X126154662Y-83750000D01*
X126173580Y-83704328D01*
X126200500Y-83568994D01*
X126200500Y-83431006D01*
X126200500Y-82750164D01*
X126220462Y-82675664D01*
X126275000Y-82621126D01*
X126349500Y-82601164D01*
X126424000Y-82621126D01*
X126454859Y-82644805D01*
X127815329Y-84005275D01*
X127815336Y-84005281D01*
X127873455Y-84044114D01*
X127873456Y-84044114D01*
X127921873Y-84076465D01*
X127921875Y-84076466D01*
X127921877Y-84076467D01*
X128000795Y-84109155D01*
X128040256Y-84125501D01*
X128165931Y-84150500D01*
X129227387Y-84150500D01*
X129301887Y-84170462D01*
X129347930Y-84211919D01*
X129469896Y-84379792D01*
X129620208Y-84530104D01*
X129738352Y-84615940D01*
X129784908Y-84649765D01*
X129833446Y-84709705D01*
X129845512Y-84785883D01*
X129817872Y-84857889D01*
X129784908Y-84890852D01*
X129738282Y-84924727D01*
X129738282Y-84924729D01*
X130370590Y-85557037D01*
X130307007Y-85574075D01*
X130192993Y-85639901D01*
X130099901Y-85732993D01*
X130034075Y-85847007D01*
X130017037Y-85910590D01*
X129384729Y-85278282D01*
X129384728Y-85278282D01*
X129345378Y-85332444D01*
X129248906Y-85521779D01*
X129183242Y-85723871D01*
X129150000Y-85933757D01*
X129150000Y-86146242D01*
X129183242Y-86356128D01*
X129248906Y-86558220D01*
X129345378Y-86747555D01*
X129384728Y-86801716D01*
X129384729Y-86801716D01*
X130017037Y-86169408D01*
X130034075Y-86232993D01*
X130099901Y-86347007D01*
X130192993Y-86440099D01*
X130307007Y-86505925D01*
X130370590Y-86522962D01*
X129707692Y-87185859D01*
X129640897Y-87224423D01*
X129606096Y-87229008D01*
X129606111Y-87229288D01*
X129602515Y-87229480D01*
X129602369Y-87229500D01*
X129602154Y-87229500D01*
X129602132Y-87229500D01*
X129602128Y-87229501D01*
X129602124Y-87229501D01*
X129602111Y-87229502D01*
X129542521Y-87235908D01*
X129542515Y-87235909D01*
X129407670Y-87286202D01*
X129407666Y-87286204D01*
X129292455Y-87372452D01*
X129292452Y-87372455D01*
X129206204Y-87487666D01*
X129206202Y-87487670D01*
X129155908Y-87622517D01*
X129149500Y-87682114D01*
X129149500Y-87730500D01*
X129129538Y-87805000D01*
X129075000Y-87859538D01*
X129000500Y-87879500D01*
X116431874Y-87879500D01*
X116357374Y-87859538D01*
X116326515Y-87835859D01*
X115244141Y-86753484D01*
X115205577Y-86686689D01*
X115200500Y-86648125D01*
X115200500Y-84524973D01*
X121050001Y-84524973D01*
X121060494Y-84627696D01*
X121115642Y-84794121D01*
X121207680Y-84943340D01*
X121331659Y-85067319D01*
X121480878Y-85159357D01*
X121647302Y-85214505D01*
X121647311Y-85214507D01*
X121750016Y-85224999D01*
X121800000Y-85224999D01*
X121800000Y-84250000D01*
X121050001Y-84250000D01*
X121050001Y-84524973D01*
X115200500Y-84524973D01*
X115200500Y-83475010D01*
X121050000Y-83475010D01*
X121050000Y-83750000D01*
X121800000Y-83750000D01*
X121800000Y-82775000D01*
X121750025Y-82775000D01*
X121647303Y-82785494D01*
X121480878Y-82840642D01*
X121331659Y-82932680D01*
X121207680Y-83056659D01*
X121115642Y-83205878D01*
X121060494Y-83372302D01*
X121060492Y-83372311D01*
X121050000Y-83475010D01*
X115200500Y-83475010D01*
X115200500Y-81224973D01*
X117800001Y-81224973D01*
X117810494Y-81327696D01*
X117865642Y-81494121D01*
X117957680Y-81643340D01*
X118081659Y-81767319D01*
X118230878Y-81859357D01*
X118397302Y-81914505D01*
X118397311Y-81914507D01*
X118500015Y-81924999D01*
X118750000Y-81924999D01*
X119250000Y-81924999D01*
X119499974Y-81924999D01*
X119602696Y-81914505D01*
X119769121Y-81859357D01*
X119918340Y-81767319D01*
X120042319Y-81643340D01*
X120134357Y-81494121D01*
X120189505Y-81327697D01*
X120189507Y-81327688D01*
X120199999Y-81224989D01*
X120200000Y-81224979D01*
X120200000Y-81162500D01*
X119250000Y-81162500D01*
X119250000Y-81924999D01*
X118750000Y-81924999D01*
X118750000Y-81162500D01*
X117800001Y-81162500D01*
X117800001Y-81224973D01*
X115200500Y-81224973D01*
X115200500Y-75851875D01*
X115220462Y-75777375D01*
X115244141Y-75746516D01*
X116296516Y-74694141D01*
X116363311Y-74655577D01*
X116401875Y-74650500D01*
X117817286Y-74650500D01*
X117891786Y-74670462D01*
G37*
%TD.AperFunction*%
%TA.AperFunction,Conductor*%
G36*
X123926914Y-74120462D02*
G01*
X123957773Y-74144141D01*
X124056344Y-74242712D01*
X124205666Y-74334814D01*
X124372203Y-74389999D01*
X124474991Y-74400500D01*
X125026543Y-74400499D01*
X125101042Y-74420461D01*
X125155580Y-74474999D01*
X125175542Y-74549499D01*
X125155580Y-74623999D01*
X125117249Y-74667708D01*
X125018488Y-74743491D01*
X124924318Y-74866214D01*
X124865119Y-75009134D01*
X124850000Y-75123983D01*
X124850000Y-75712500D01*
X125350500Y-75712500D01*
X125425000Y-75732462D01*
X125479538Y-75787000D01*
X125499500Y-75861500D01*
X125499500Y-75913500D01*
X125479538Y-75988000D01*
X125425000Y-76042538D01*
X125350500Y-76062500D01*
X124850001Y-76062500D01*
X124850001Y-76651006D01*
X124865121Y-76765870D01*
X124924316Y-76908780D01*
X124969209Y-76967284D01*
X124998725Y-77038541D01*
X125000000Y-77057991D01*
X125000000Y-78941185D01*
X124980038Y-79015685D01*
X124969211Y-79031889D01*
X124923881Y-79090965D01*
X124864633Y-79234003D01*
X124849500Y-79348954D01*
X124849500Y-80876045D01*
X124864633Y-80990996D01*
X124907084Y-81093481D01*
X124917151Y-81169949D01*
X124887635Y-81241206D01*
X124826445Y-81288158D01*
X124769426Y-81299500D01*
X123851875Y-81299500D01*
X123777375Y-81279538D01*
X123746516Y-81255859D01*
X121034046Y-78543389D01*
X121034043Y-78543386D01*
X120919311Y-78466725D01*
X120919308Y-78466723D01*
X120919302Y-78466720D01*
X120791829Y-78413920D01*
X120791827Y-78413919D01*
X120656497Y-78387000D01*
X120656494Y-78387000D01*
X120656493Y-78387000D01*
X120158065Y-78387000D01*
X120083565Y-78367038D01*
X120029027Y-78312500D01*
X120009065Y-78238000D01*
X120029027Y-78163500D01*
X120041185Y-78145588D01*
X120042708Y-78143661D01*
X120042709Y-78143658D01*
X120042712Y-78143656D01*
X120134814Y-77994334D01*
X120189999Y-77827797D01*
X120200500Y-77725009D01*
X120200499Y-77099992D01*
X120189999Y-76997203D01*
X120134814Y-76830666D01*
X120042712Y-76681344D01*
X119966727Y-76605359D01*
X119928163Y-76538564D01*
X119928163Y-76461436D01*
X119966727Y-76394641D01*
X119996467Y-76364901D01*
X120042712Y-76318656D01*
X120134814Y-76169334D01*
X120189999Y-76002797D01*
X120200500Y-75900009D01*
X120200499Y-75274992D01*
X120189999Y-75172203D01*
X120134814Y-75005666D01*
X120055896Y-74877719D01*
X120033777Y-74803833D01*
X120051565Y-74728784D01*
X120104493Y-74672683D01*
X120178381Y-74650563D01*
X120182714Y-74650500D01*
X122618990Y-74650500D01*
X122618994Y-74650500D01*
X122754328Y-74623580D01*
X122841371Y-74587525D01*
X122881802Y-74570779D01*
X122881803Y-74570778D01*
X122881811Y-74570775D01*
X122996543Y-74494114D01*
X123346515Y-74144140D01*
X123413310Y-74105577D01*
X123451874Y-74100500D01*
X123852414Y-74100500D01*
X123926914Y-74120462D01*
G37*
%TD.AperFunction*%
%TA.AperFunction,Conductor*%
G36*
X136925500Y-68019962D02*
G01*
X136980038Y-68074500D01*
X137000000Y-68149000D01*
X137000000Y-93851000D01*
X136980038Y-93925500D01*
X136925500Y-93980038D01*
X136851000Y-94000000D01*
X111149000Y-94000000D01*
X111074500Y-93980038D01*
X111019962Y-93925500D01*
X111000000Y-93851000D01*
X111000000Y-75431007D01*
X113799500Y-75431007D01*
X113799500Y-75436984D01*
X113799500Y-87068997D01*
X113826419Y-87204327D01*
X113826420Y-87204329D01*
X113879220Y-87331802D01*
X113879223Y-87331808D01*
X113879225Y-87331811D01*
X113955886Y-87446543D01*
X115535886Y-89026542D01*
X115633458Y-89124114D01*
X115633461Y-89124116D01*
X115748184Y-89200772D01*
X115748187Y-89200774D01*
X115748188Y-89200774D01*
X115748189Y-89200775D01*
X115789248Y-89217782D01*
X115875671Y-89253580D01*
X115902591Y-89258934D01*
X116011007Y-89280500D01*
X129000501Y-89280500D01*
X129075001Y-89300462D01*
X129129539Y-89355000D01*
X129149501Y-89429500D01*
X129149501Y-89477863D01*
X129149502Y-89477888D01*
X129155908Y-89537478D01*
X129155909Y-89537484D01*
X129206202Y-89672329D01*
X129206204Y-89672333D01*
X129292452Y-89787544D01*
X129292455Y-89787547D01*
X129407666Y-89873795D01*
X129407670Y-89873797D01*
X129542517Y-89924091D01*
X129602114Y-89930499D01*
X129602118Y-89930499D01*
X129602127Y-89930500D01*
X131397872Y-89930499D01*
X131457483Y-89924091D01*
X131553447Y-89888298D01*
X131592329Y-89873797D01*
X131592333Y-89873795D01*
X131649938Y-89830671D01*
X131707546Y-89787546D01*
X131793796Y-89672331D01*
X131844091Y-89537483D01*
X131845823Y-89521370D01*
X131850499Y-89477885D01*
X131850499Y-89477882D01*
X131850500Y-89477873D01*
X131850499Y-87682128D01*
X131844091Y-87622517D01*
X131829588Y-87583633D01*
X131793797Y-87487670D01*
X131793795Y-87487666D01*
X131707547Y-87372455D01*
X131707544Y-87372452D01*
X131592333Y-87286204D01*
X131592329Y-87286202D01*
X131457482Y-87235908D01*
X131397885Y-87229500D01*
X131397665Y-87229500D01*
X131397614Y-87229486D01*
X131393892Y-87229287D01*
X131393934Y-87228500D01*
X131323165Y-87209538D01*
X131292306Y-87185859D01*
X130629409Y-86522962D01*
X130692993Y-86505925D01*
X130807007Y-86440099D01*
X130900099Y-86347007D01*
X130965925Y-86232993D01*
X130982962Y-86169409D01*
X131615269Y-86801716D01*
X131615270Y-86801716D01*
X131654620Y-86747557D01*
X131654622Y-86747555D01*
X131751093Y-86558220D01*
X131816757Y-86356128D01*
X131850000Y-86146242D01*
X131850000Y-85933757D01*
X131816757Y-85723871D01*
X131751093Y-85521779D01*
X131654621Y-85332444D01*
X131615270Y-85278282D01*
X130982962Y-85910589D01*
X130965925Y-85847007D01*
X130900099Y-85732993D01*
X130807007Y-85639901D01*
X130692993Y-85574075D01*
X130629407Y-85557037D01*
X131261716Y-84924729D01*
X131215089Y-84890852D01*
X131166551Y-84830912D01*
X131154486Y-84754733D01*
X131182127Y-84682728D01*
X131215089Y-84649766D01*
X131379792Y-84530104D01*
X131530104Y-84379792D01*
X131655051Y-84207816D01*
X131751557Y-84018412D01*
X131817246Y-83816243D01*
X131850500Y-83606287D01*
X131850500Y-83393713D01*
X131817246Y-83183757D01*
X131751557Y-82981588D01*
X131655051Y-82792184D01*
X131650190Y-82785494D01*
X131585910Y-82697019D01*
X131530104Y-82620208D01*
X131379792Y-82469896D01*
X131207816Y-82344949D01*
X131018412Y-82248443D01*
X130816243Y-82182754D01*
X130606287Y-82149500D01*
X130393713Y-82149500D01*
X130218749Y-82177211D01*
X130183756Y-82182754D01*
X129981594Y-82248441D01*
X129981588Y-82248443D01*
X129981582Y-82248445D01*
X129981582Y-82248446D01*
X129792182Y-82344950D01*
X129792181Y-82344950D01*
X129620209Y-82469895D01*
X129620206Y-82469897D01*
X129469897Y-82620206D01*
X129469896Y-82620208D01*
X129357797Y-82774501D01*
X129347931Y-82788080D01*
X129287991Y-82836618D01*
X129227387Y-82849500D01*
X128561164Y-82849500D01*
X128486664Y-82829538D01*
X128455805Y-82805859D01*
X127519141Y-81869195D01*
X127509333Y-81852207D01*
X127495462Y-81838336D01*
X127490384Y-81819387D01*
X127480577Y-81802400D01*
X127475500Y-81763836D01*
X127475500Y-81572192D01*
X127495462Y-81497692D01*
X127550000Y-81443154D01*
X127605054Y-81424466D01*
X127715870Y-81409878D01*
X127858786Y-81350680D01*
X127981508Y-81256511D01*
X127981511Y-81256508D01*
X128075681Y-81133785D01*
X128134880Y-80990865D01*
X128149999Y-80876016D01*
X128150000Y-80876011D01*
X128150000Y-80287500D01*
X127649500Y-80287500D01*
X127575000Y-80267538D01*
X127520462Y-80213000D01*
X127500500Y-80138500D01*
X127500500Y-80086500D01*
X127520462Y-80012000D01*
X127575000Y-79957462D01*
X127649500Y-79937500D01*
X128149999Y-79937500D01*
X128149999Y-79348993D01*
X128134878Y-79234129D01*
X128075680Y-79091213D01*
X128030791Y-79032713D01*
X128001275Y-78961456D01*
X128000000Y-78942007D01*
X128000000Y-77058813D01*
X128019962Y-76984313D01*
X128030790Y-76968108D01*
X128076117Y-76909037D01*
X128076224Y-76908780D01*
X128135366Y-76765996D01*
X128150499Y-76651045D01*
X128150500Y-76651041D01*
X128150500Y-75123958D01*
X128139966Y-75043950D01*
X128150033Y-74967481D01*
X128196985Y-74906291D01*
X128268241Y-74876775D01*
X128287691Y-74875500D01*
X129000501Y-74875500D01*
X129075001Y-74895462D01*
X129129539Y-74950000D01*
X129149501Y-75024500D01*
X129149501Y-75122863D01*
X129149502Y-75122888D01*
X129155908Y-75182478D01*
X129155909Y-75182484D01*
X129206202Y-75317329D01*
X129206204Y-75317333D01*
X129292452Y-75432544D01*
X129292455Y-75432547D01*
X129407666Y-75518795D01*
X129407670Y-75518797D01*
X129542517Y-75569091D01*
X129602114Y-75575499D01*
X129602118Y-75575499D01*
X129602127Y-75575500D01*
X129602303Y-75575499D01*
X129602346Y-75575511D01*
X129606108Y-75575713D01*
X129606065Y-75576506D01*
X129676804Y-75595443D01*
X129707694Y-75619140D01*
X130370591Y-76282037D01*
X130307007Y-76299075D01*
X130192993Y-76364901D01*
X130099901Y-76457993D01*
X130034075Y-76572007D01*
X130017037Y-76635590D01*
X129384729Y-76003282D01*
X129384728Y-76003282D01*
X129345378Y-76057444D01*
X129248906Y-76246779D01*
X129183242Y-76448871D01*
X129150000Y-76658757D01*
X129150000Y-76871242D01*
X129183242Y-77081128D01*
X129248906Y-77283220D01*
X129345378Y-77472555D01*
X129384728Y-77526716D01*
X129384729Y-77526716D01*
X130017037Y-76894408D01*
X130034075Y-76957993D01*
X130099901Y-77072007D01*
X130192993Y-77165099D01*
X130307007Y-77230925D01*
X130370590Y-77247962D01*
X129738282Y-77880270D01*
X129792444Y-77919621D01*
X129792444Y-77919622D01*
X129981779Y-78016093D01*
X130183871Y-78081757D01*
X130393758Y-78115000D01*
X130606242Y-78115000D01*
X130816128Y-78081757D01*
X131018220Y-78016093D01*
X131207555Y-77919622D01*
X131207557Y-77919620D01*
X131261716Y-77880270D01*
X131261716Y-77880269D01*
X130629409Y-77247962D01*
X130692993Y-77230925D01*
X130807007Y-77165099D01*
X130900099Y-77072007D01*
X130965925Y-76957993D01*
X130982962Y-76894409D01*
X131615269Y-77526716D01*
X131615270Y-77526716D01*
X131654620Y-77472557D01*
X131654622Y-77472555D01*
X131751093Y-77283220D01*
X131816757Y-77081128D01*
X131850000Y-76871242D01*
X131850000Y-76658757D01*
X131816757Y-76448871D01*
X131751093Y-76246779D01*
X131654621Y-76057444D01*
X131615270Y-76003282D01*
X130982962Y-76635589D01*
X130965925Y-76572007D01*
X130900099Y-76457993D01*
X130807007Y-76364901D01*
X130692993Y-76299075D01*
X130629408Y-76282037D01*
X131292306Y-75619140D01*
X131359101Y-75580576D01*
X131393904Y-75575994D01*
X131393889Y-75575712D01*
X131397528Y-75575516D01*
X131397664Y-75575499D01*
X131397872Y-75575499D01*
X131457483Y-75569091D01*
X131553447Y-75533298D01*
X131592329Y-75518797D01*
X131592333Y-75518795D01*
X131649938Y-75475671D01*
X131707546Y-75432546D01*
X131793796Y-75317331D01*
X131844091Y-75182483D01*
X131850383Y-75123960D01*
X131850499Y-75122885D01*
X131850499Y-75122882D01*
X131850500Y-75122873D01*
X131850499Y-73327128D01*
X131844091Y-73267517D01*
X131821094Y-73205859D01*
X131793797Y-73132670D01*
X131793795Y-73132666D01*
X131707547Y-73017455D01*
X131707544Y-73017452D01*
X131592333Y-72931204D01*
X131592329Y-72931202D01*
X131457482Y-72880908D01*
X131397876Y-72874500D01*
X129602136Y-72874500D01*
X129602111Y-72874502D01*
X129542521Y-72880908D01*
X129542515Y-72880909D01*
X129407670Y-72931202D01*
X129407666Y-72931204D01*
X129292455Y-73017452D01*
X129292452Y-73017455D01*
X129206204Y-73132666D01*
X129206202Y-73132670D01*
X129155908Y-73267517D01*
X129149500Y-73327114D01*
X129149500Y-73425500D01*
X129129538Y-73500000D01*
X129075000Y-73554538D01*
X129000500Y-73574500D01*
X127496947Y-73574500D01*
X127371277Y-73599498D01*
X127252898Y-73648532D01*
X127252890Y-73648537D01*
X127146351Y-73719723D01*
X127146349Y-73719724D01*
X127064029Y-73802044D01*
X126997234Y-73840607D01*
X126920106Y-73840607D01*
X126853311Y-73802042D01*
X126814748Y-73735247D01*
X126812537Y-73725766D01*
X126800501Y-73665256D01*
X126751465Y-73546873D01*
X126680276Y-73440331D01*
X126589669Y-73349724D01*
X126228988Y-72989042D01*
X126192913Y-72930554D01*
X126159814Y-72830666D01*
X126067712Y-72681344D01*
X125943656Y-72557288D01*
X125941373Y-72555005D01*
X125902809Y-72488210D01*
X125902809Y-72411082D01*
X125941373Y-72344287D01*
X126067319Y-72218340D01*
X126159357Y-72069121D01*
X126214505Y-71902697D01*
X126214507Y-71902688D01*
X126224999Y-71799989D01*
X126225000Y-71799979D01*
X126225000Y-71750000D01*
X123775001Y-71750000D01*
X123775001Y-71799973D01*
X123785494Y-71902696D01*
X123840642Y-72069121D01*
X123932680Y-72218340D01*
X124058627Y-72344287D01*
X124097191Y-72411082D01*
X124097191Y-72488210D01*
X124058627Y-72555005D01*
X123957773Y-72655859D01*
X123890978Y-72694423D01*
X123852414Y-72699500D01*
X123031007Y-72699500D01*
X122922591Y-72721064D01*
X122922591Y-72721065D01*
X122917237Y-72722130D01*
X122895672Y-72726419D01*
X122854828Y-72743337D01*
X122842866Y-72748292D01*
X122842864Y-72748293D01*
X122842863Y-72748292D01*
X122768193Y-72779222D01*
X122768186Y-72779226D01*
X122691203Y-72830664D01*
X122691204Y-72830665D01*
X122653456Y-72855887D01*
X122303484Y-73205859D01*
X122236689Y-73244423D01*
X122198125Y-73249500D01*
X115981002Y-73249500D01*
X115845672Y-73276419D01*
X115845670Y-73276420D01*
X115718197Y-73329220D01*
X115718184Y-73329228D01*
X115603458Y-73405885D01*
X115603453Y-73405889D01*
X113955889Y-75053453D01*
X113955885Y-75053458D01*
X113879228Y-75168184D01*
X113879220Y-75168197D01*
X113826421Y-75295668D01*
X113826420Y-75295672D01*
X113810768Y-75374358D01*
X113810760Y-75374397D01*
X113810504Y-75375689D01*
X113799500Y-75431007D01*
X111000000Y-75431007D01*
X111000000Y-71200010D01*
X123775000Y-71200010D01*
X123775000Y-71250000D01*
X124750000Y-71250000D01*
X125250000Y-71250000D01*
X126224999Y-71250000D01*
X126224999Y-71200026D01*
X126214505Y-71097303D01*
X126159357Y-70930878D01*
X126067319Y-70781659D01*
X125943340Y-70657680D01*
X125794121Y-70565642D01*
X125627697Y-70510494D01*
X125627688Y-70510492D01*
X125524989Y-70500000D01*
X125250000Y-70500000D01*
X125250000Y-71250000D01*
X124750000Y-71250000D01*
X124750000Y-70500000D01*
X124475026Y-70500000D01*
X124372303Y-70510494D01*
X124205878Y-70565642D01*
X124056659Y-70657680D01*
X123932680Y-70781659D01*
X123840642Y-70930878D01*
X123785494Y-71097302D01*
X123785492Y-71097311D01*
X123775000Y-71200010D01*
X111000000Y-71200010D01*
X111000000Y-68149000D01*
X111019962Y-68074500D01*
X111074500Y-68019962D01*
X111149000Y-68000000D01*
X136851000Y-68000000D01*
X136925500Y-68019962D01*
G37*
%TD.AperFunction*%
%TD*%
M02*
